<?xml-stylesheet type="text/css" href="../style.css" ?>
<svg version="1.1" xmlns="http://www.w3.org/2000/svg" xmlns:xlink="http://www.w3.org/1999/xlink" x="0px" y="0px" width="865px" height="770px" viewBox="0 0 865 770" style="enable-background:new 0 0 814.459 769.462;" xml:space="preserve">
<g id="map">
	<g id="k6YXkW_2_">
		<g>
			<g>
				<path class="reg0" d="M544.721,310.923c-5.71-1.518-11.005-4.762-12.619-10.462c-0.927-3.272-1.409-6.189-3.594-9.061
					c-1.197-1.574-0.695-4.484-3.261-5.666c-0.437-0.201-0.888-1.206-0.753-1.673c0.666-2.308,2.729-3.959,2.682-6.72
					c-0.051-3.002,2.713-3.385,4.892-4.225c3.364-1.297,4.129-3.774,2.588-7.581c-1.303-3.218-3.543-2.534-5.764-1.388
					c-1.833,0.946-3.695,1.146-5.083-0.284c-2.61-2.689-4.935-5.654-7.366-8.514c-0.162-0.191-0.195-0.485-0.325-0.709
					c-2.01-3.462-6.045-6.926,0.039-10.357c-0.802-5.31,2.644-10.073,1.71-15.6c-0.465-2.756-0.227-5.822-0.759-8.713
					c-0.477-2.59-1.601-4.661-4.494-5.23c-0.619-0.122-1.368-0.329-1.756-0.766c-4.943-5.561-10.686-4.532-16.974-1.968
					c0.692-3.288,2.986-4.728,5.324-6.405c5.586-4.007,12.557-6.35,16.915-11.641c3.905-4.741,9.862-8.441,10.299-15.572
					c0.008-0.124,0.058-0.273,0.14-0.362c5.201-5.604,6.293-13.394,10.32-19.561c5.225-8.001,6.01-17.16,7.82-26.089
					c-1.589-0.145-3.031-0.385-1.924-2.569c0.359-0.709-0.039-1.306-0.555-1.691c-0.718-0.536-1.011,0.201-1.524,0.571
					c-2.416,1.747-4.761,2.315-6.177-1.176c-0.818-2.018-2.511-2.588-4.35-2.7c-2.907-0.177-5.661-0.526-7.566-3.081
					c-0.541-0.726-1.026-0.524-1.496,0.099c-2.161,2.864-5.257,1.149-7.354,0.659c-4.981-1.164-8.897,0.602-11.364,4.046
					c-1.7,2.372-2.113,5.606-5.52,6.542c0.14,0.01,0.281,0.014,0.421,0.02c-0.222,0.102-0.426,0.224-0.619,0.357
					c0.039-0.103,0.079-0.205,0.114-0.308c-0.666-0.921-1.41-0.058-1.406,0.258c0.043,3.375-3.13,4.829-4.329,7.442
					c-0.786,1.712-1.996,3.267-3.758,3.81c-2.557,0.788-3.708,2.605-4.766,4.789c-1.118,2.307-2.697,4.387-3.19,7.732
					c-2.084-4.945-1.287-8.603,1.748-11.831c0.658-0.7,1.426-1.414,0.766-2.329c-0.743-1.031-2.166-0.886-2.814-0.192
					c-2.338,2.506-7.736,1.073-7.506,6.777c-2.596-5.779-2.609-5.835-8.724-4.343c-1.459,0.356-2.695,0.553-4.101-0.206
					c-3.046-1.644-6.112,0.115-6.529,3.645c-1.001-0.234-1.929-2.455-2.805-0.903c-1.616,2.862-0.202,5.552,2.37,8.142
					c-1.062-0.11-1.445-0.06-1.745-0.195c-3.734-1.681-2.663-4.99-2.446-7.842c0.227-2.986-1.836-4.072-3.874-4.471
					c-2.189-0.428-2.857,1.659-3.425,3.508c-0.59,1.922,0.65,3.502,0.784,5.536c-2.446-1.689-2.637-3.978-2.272-6.309
					c1.01-6.453,2.453-6.998,8.005-3.16c0.874,0.604,1.733,1.215,2.851,1.095c3.568-0.382,6.973-3.679,10.743-0.601
					c0.039,0.032,0.214-0.117,0.333-0.165c3.204-1.297,6.461-0.943,9.793-0.569c1.687,0.189,4.428,0.158,5.02-0.803
					c1.67-2.713,3.883-1.698,6.033-1.906c3.907-0.378,8.811-0.59,10.11-4.587c1.899-5.841,5.849-10.56,7.575-16.452
					c1.153-3.934,0.843-5.684-3.231-6.27c-2.349-0.338-4.618-0.451-6.982-1.321c-2.522-0.928-5.9-1.904-8.156,1.419
					c-0.313,0.462-1.501,0.679-2.151,0.506c-4.105-1.09-8.507-0.139-12.507-2.509c-3.191-1.891-8.189-0.318-10.33,2.372
					c-2.129,2.675-2.229,5.208,0.891,7.333c-1.351,0.948-3.765-1.012-3.467,0.803c0.69,4.196-2.015,5.172-4.725,6.555
					c-5.494,2.804-9.34,8.237-15.809,9.635c-1.64,0.354-3.301,1.416-5.067,1.853c-1.714,0.424-3.116,1.543-2.817,3.227
					c0.579,3.264,0.3,6.834,2.771,9.583c3.504,3.898,2.796,8.801,3.203,13.463c-1.61-2.536-4.321-4.594-3.167-8.173
					c0.403-1.25-0.484-2.119-1.039-3.169c-2.105-3.981-5.307-8.042-3.662-12.706c1.437-4.074-0.639-3.982-3.174-3.889
					c-4.077,0.15-7.545,2.104-10.659,4.486c-3.194,2.442-6.639,3.317-10.57,3.209c-3.925-0.108-7.208,1.485-8.97,5.093
					c-2.418,4.951-4.69,6.333-10.11,5.491c-8.011-1.245-8.591-0.864-10.797,7.141c-0.207,0.753-0.197,1.597-0.533,2.277
					c-1.775,3.588-1.536,7.964-4.437,11.151c1.004-6.316,2.417-12.511,3.94-18.679c0.279-1.132,1.878-2.24-0.159-3.149
					c-1.234-0.551-0.523-1.134-0.215-1.797c0.29-0.623,1.331-1.172,0.455-1.975c-0.922-0.845-1.644,0.042-2.417,0.46
					c-2.304,1.244-4.658,1.666-7.002,0.137c-0.754-0.492-1.667-1.189-0.93-2.2c0.757-1.039,1.249,0.109,1.828,0.47
					c1.247,0.777,2.639,0.932,3.46-0.373c0.794-1.261-0.892-1.593-1.424-2.358c-1.405-2.02-3.376-1.696-5.25-0.934
					c-2.589,1.052-5.308,1.842-7.906,4.066c0.355-3.495,1.964-4.537,4.745-4.494c0.905,0.014,3.24-0.763,2.21-1.371
					c-2.634-1.557-3.918-5.689-6.472-5.526c-3.894,0.249-5.748-2.749-8.771-3.568c-0.725-0.196-1.756-0.411-1.237-1.46
					c0.494-0.997,1.14-0.34,1.87,0.063c2.088,1.155,4.549,3.316,6.372,2.904c3.438-0.777,4.707,1.348,5.648,3.224
					c0.805,1.604,1.821,2.313,3.18,3.066c3.294,1.827,7.458,2.046,9.863,5.594c0.628,0.927,2.161,0.853,3.268,0.157
					c0.391-0.246,0.85-0.696,0.9-1.099c0.085-0.694-0.549-0.763-1.075-0.634c-0.736,0.18-1.717,0.661-1.668-0.614
					c0.039-1.003,1.055-1.683,1.997-1.389c2.976,0.927,5.91,2,8.818,3.123c0.761,0.294,1.105,1.137,0.887,1.982
					c-0.647,2.509,0.263,4.303,2.768,4.636c2.597,0.345,5.637-0.534,6.117-3.132c1.021-5.525,5.151-6.593,9.35-8.188
					c3.795-1.442,8.021-1.089,11.634-3.065c5.682-3.107,11.499-5.683,18.22-5.086c1.062,0.094,1.469-0.86,2.076-1.544
					c5.666-6.378,8.356-14.629,13.48-21.372c1.35-1.776,2.377-3.202,4.769-3.378c1.31-0.097,3.264-0.139,2.633-2.531
					c-0.033-0.01-0.058-0.006-0.088-0.013c0.042-0.054,0.086-0.106,0.125-0.162c0.008,0.028,0.016,0.056,0.024,0.084
					c1.456-1.009,2.913-2.018,4.37-3.028c1.739-1.205,3.364-2.694,3.844-4.719c0.949-4.002,3.063-5.737,7.201-4.806
					c1.029,0.231,2.226,0.031,2.478-1.244c0.301-1.522-1.072-1.454-2.009-1.736c-0.381,0.475-1.037,1.032-1.404,0.477
					c-0.505-0.763,0.577-0.703,0.944-1.028c1.266-1.59,4.625-3.24,3.741-4.423c-1.744-2.333-0.398-2.473,1.021-3.024
					c0.737-0.286,0.912-0.653,0.998-1.388c0.549-4.678-3.134-8.729-7.903-8.488c-2.068,0.104-4.132-0.052-5.051-2.041
					c-0.997-2.157-2.506-3.167-5.639-3.244c3.268-2.087,2.467-4.281,1.637-6.481c-2.521-6.679-5.49-13.33-6.185-20.429
					c-0.488-4.986-2.484-9.181-4.285-13.581c-0.505-1.233-1.397-2.213-2.493-2.958c-0.617-0.42-1.339-1.066-2.099-0.43
					c-0.764,0.639-0.964,1.572-0.403,2.463c0.689,1.093,1.967,1.963,1.121,4.239c-1.647-3.213-3.408-3.123-5.227-0.868
					c-6.71,8.324-13.557,16.55-16.553,27.156c-1.381,4.888-7.175,8.751-11.466,6.924c-6.364-2.71-12.067-2.001-17.849,1.206
					c-2.386,1.323-5.102,1.266-6.97-0.572c-2.973-2.923-6.801-4.209-10.172-6.337c-2.326-1.468-4.946-1.64-6.594-0.223
					c-3.335,2.869-6.58,1.766-10.065,1.089c-3.636-0.706-6.662,2.316-6.146,5.949c0.103,0.728,0.47,1.421,0.581,2.135
					c0.052-0.092,0.114-0.163,0.191-0.192c1.165-0.437,1.434,0.665,1.913,1.403c0.621,0.955,0.437,1.747-0.416,2.379
					c-1.407,1.043-2.988,0.859-4.484,0.331c-3.761-1.327-7.524-2.058-11.481-0.866c-1.161,0.35-2.317-0.121-3.421-0.555
					c-3.853-1.514-6.919-0.566-9.306,2.945c-0.722,1.063-1.559,1.749-2.899,1.554c-2.9-0.424-5.3,0.938-7.708,2.195
					c-0.927,0.484-1.846,1.37-2.856,1.071c-3.973-1.179-6.117,1.154-7.965,3.99c-1.301,1.996-3.558,3.365-5.252,2.405
					c-2.871-1.627-6.332-1.308-8.929-3.257c-4.933-3.701-10.552-6.962-10.049-14.488c0.07-1.052-0.887-1.829-1.318-2.733
					c-1.796-3.765-4.45-7.409-2.521-11.984c1.469-3.485,2.839-6.952,2.254-10.921c-0.27-1.833,1.213-3.019,2.549-4.145
					c1.079-0.909,2.355-1.867,2.165-3.511c-0.396-3.412-2.09-6.418-3.287-9.566c-0.746-1.965-2.914-1.876-4.668-2.339
					c-1.384-0.365-2.848-0.661-1.829-2.781c2.781-5.783,2.195-7.587-2.753-11.587h-3.136c-0.159,1-0.868,0.764-1.485,0.763
					c-3.011-0.002-4.753,0.866-3.845,4.345c0.351,1.347-0.322,2.696-1.39,3.437c-3.06,2.125-4.91,6.027-9.559,5.874
					c-2.458-0.081-3.957,2.373-5.764,3.782c-4.831,3.765-10.091,5.5-16.212,4.661c-5.309-0.728-8.634,2.265-8.333,7.347
					c0.137,2.32-2.421,4.018-4.639,2.907c-1.13-0.566-2.276-1.453-2.96-2.493c-2.02-3.075-3.915-4.797-8.189-3.164
					c-1.94,0.742-4.903-0.171-7.433,0.507c-1.559,0.418-2.237-1.096-2.882-2.193c-0.943-1.604-2.253-2.608-4.109-2.516
					c-2.588,0.128-5.11,1.257-7.506-1.219c-1.009-1.042-2.098,0.425-1.792,1.839c0.456,2.109,1.516,3.919,3.476,4.99
					c4.691,2.565,7.875,5.846,6.841,11.841c-0.291,1.685,0.463,3.567,1.801,5.02c1.731,1.881,2.756,3.904,1.986,6.713
					c-0.677,2.471,1.074,3.59,3.322,3.747c2.079,0.145,4.177-0.001,6.259,0.115c1.843,0.103,3.263,0.93,3.689,2.9
					c0.476,2.201-1.355,2.555-2.698,3.191c-1.173,0.555-2.428,0.953-3.675,1.328c-3.238,0.974-6.017,1.928-6.801,6.149
					c-0.633,3.41-2.685,6.631-7.318,5.793c-0.358-0.065-0.865-0.001-1.131,0.215c-6.21,5.034-14.912,7.005-18.621,15.122
					c-0.318,0.696-0.756,1.544-1.722,1.15c-0.826-0.336-0.953-1.228-0.792-2.012c0.319-1.552,0.913-3.265-0.971-4.107
					c-1.921-0.858-3.569,0.332-5.014,1.433c-6.349,4.841-8.523,4.677-14.561-0.74c-2.044-1.834-3.967-3.899-7.214-4.054
					c-2.387-0.114-2.06-2.614-1.681-4.074c1.436-5.536-3.962-7.894-5.498-12.046c-0.421-1.138-3.18-1.527-4.797,0.28
					c-1.035,1.157-2.328,2.082-3.474,3.144c-2.455,2.275-4.81,3.296-6.971-0.356c-0.426-0.719-1.133-1.191-1.967-0.701
					c-0.851,0.499-1.281,1.435-1.048,2.345c0.703,2.743-0.959,2.495-2.831,2.692c-7.363,0.774-14.695,0.686-22.075,0.164
					c-4.073-0.288-6.905,2.684-6.919,6.338c-0.02,5.506,1.862,7.717,7.028,7.621c2.929-0.055,5.536-0.139,6.524,3.344
					c0.73,2.573,0.075,4.532-2.859,3.862c-4.508-1.03-7.83,2.587-12.07,2.532c-1.394-0.018-1.574,1.957-1.649,3.208
					c-0.406,6.772,0.41,12.426,6.285,17.76c4.468,4.056,7.621,10.751,6.548,17.888c-2.268,15.091-4.536,30.182-6.896,45.259
					c-0.462,2.954-1.227,5.876-2.052,8.755c-0.92,3.213-3.17,3.883-5.724,1.877c-2.983-2.343-7.891-2.307-10.685,0.406
					c-1.863,1.809-4.085,2.256-6.332,3.168c-4.623,1.877-9.563,2.247-14.055,3.894c-2.971,1.09-5.985,3.524-8.445,5.707
					c-2.345,2.08-4.784,3.961-7.379,5.577c-3.052,1.901-4.188,4.488-4.031,7.856c0.189,4.052-0.462,7.769-3.501,10.813
					c-1.79,1.792-1.046,3.793-0.111,5.795c1.651,3.537,0.95,5.489-2.491,7.284c-4.828,2.518-8.228,5.632-6.931,11.936
					c0.59,2.867-1.817,4.027-3.817,4.997v4.705c2,1.408,3.676,2.442,4.819,5.3c2.5,6.25,6.433,11.77,11.851,16.095
					c2.452,1.957,3.802,4.461,2.987,7.818c-0.415,1.711-3.231,3.044-1.728,4.737c1.199,1.352,3.695,0.419,5.618,0.552
					c1.17,0.081,2.346-0.011,3.519,0.047c5.632,0.275,7.79,1.914,8.928,7.407c0.477,2.302,1.569,2.845,3.7,3.025
					c8.137,0.688,15.183-1.019,20.621-7.735c1.31-1.618,3.147-4.424,5.685-3.253c2.737,1.262,2.166,4.547,2.053,7.069
					c-0.235,5.211-0.982,10.401-1.158,15.612c-0.155,4.6,2.699,6.888,7.304,6.252c1.149-0.159,2.268-0.596,3.378-0.974
					c7.516-2.564,15.248-1.717,22.719-0.492c5.736,0.94,8.056,0.963,11.683-3.626c2.029-2.568,4.774-4.008,8.026-4.391
					c0.895-0.105,1.832,0.113,2.567-0.636c3.639-3.706,8.372-6.187,12.06-9.581c6.776-6.236,14.552-8.211,23.148-8.962
					c1.871-0.164,4.048,0.117,5.465-1.578c1.666-1.992,2.768-0.896,3.498,0.674c0.646,1.389,1.404,3.073,1.166,4.465
					c-1.03,6.04-2.409,11.994-0.13,18.08c0.365,0.976-0.339,2.305-0.319,3.467c0.035,2.063-0.442,4.236,0.69,6.144
					c2.916,4.912,5.897,9.778,11.16,12.635c1.641,0.891,3.666,0.785,4.871,2.848c2.68,4.585,5.552,5.661,10.737,4.704
					c3.39-0.626,6.714-0.971,9.752,1.319c1.045,0.788,2.418,1.245,3.713,0.671c1.833-0.813,2.801-0.025,3.922,1.367
					c3.324,4.124,8.312,6.217,13.029,6.627c3.548,0.309,5.848,1.306,7.192,3.891c2.657,5.113,7.343,4.599,11.477,4.174
					c4.863-0.5,9.411-1.037,13.505,2.254c0.055-0.254,0.03-0.663,0.177-0.739c5.735-2.976,7.018-9.458,10.908-13.916
					c3.255-3.73,5.169-8.319,4.668-13.522c-0.213-2.213-0.595-4.352-2.278-6.086c-2.447-2.523-2.384-5.615-0.763-8.338
					c3.741-6.281-0.542-9.439-6.219-9.293c-6.247,0.16-12.462-0.993-18.754-0.716c-2.627,0.115-4.373-1.35-3.618-4.594
					c0.719-3.091,0.396-6.14-0.681-9.226c-1.175-3.366-0.463-6.99-0.579-10.497c-0.186-5.611-0.118-11.231-0.292-16.843
					c-0.063-2.019,0.645-2.753,2.66-2.818c15.129-0.49,30.255-1.042,45.381-1.619c2.844-0.108,5.679-0.435,8.521-0.625
					c1.169-0.078,2.037-0.515,2.28-1.729c0.978-4.887,3.3-9.349,2.337-14.839c-0.559-3.189,1.643-6.976,3.005-10.33
					c0.529-1.305,1.592-0.039,1.968,0.676c3.566,6.774,8.091,13.213,7.92,21.358c-0.041,1.948,0.451,3.883,1.74,5.063
					c7.316,6.699,14.564,13.68,25.212,14.589c7.147,0.61,14.31,1.036,21.47,1.477c30.465,1.875,60.93,3.741,91.398,5.552
					c2.486,0.148,3.285,0.669,2.084,3.255c-1.963,4.228-4.079,8.492-5.209,12.973c-1.437,5.699-2.175,11.525-2.231,17.552
					c-0.065,6.895,1.42,13.627,1.154,20.481c-0.04,1.031-0.123,2.101,0.54,3.021c0.506,0.702,1.254,1.012,2.045,0.898
					c0.708-0.102,0.991-0.762,1.091-1.45c0.149-1.031,0.153-2.113,0.489-3.079c0.492-1.418,1.528-2.855,3.109-2.286
					c1.345,0.485,0.536,2.035,0.27,3.119c-1.304,5.326-0.409,6.849,4.902,8.666c2.327,0.796,4.745,1.326,6.849,2.793
					c1.827,1.274,3.42,0.681,4.549-1.288c0.907-1.582,1.862-3.153,2.957-4.608c2.124-2.822,4.105-2.687,6.055,0.322
					c1.171,1.806,1.472,3.831,1.693,5.947c0.167,1.605,0.74,2.756,2.718,0.982c3.128-2.806,9.206-2.588,12.449-0.154
					c2.102,1.578,4.536,4.013,6.03-0.796c0.456-1.469,1.705-0.781,2.58-0.198c2.123,1.417,4.023,0.219,6.165-0.04
					c6.899-0.835,12.08-6.316,19.077-6.532c0.71-2.661,0.197-4.998-1.146-7.47c-1.484-2.732-2.167-5.798,1.686-7.572
					c0.961-0.443,1.731-1.427,1.085-2.118c-1.511-1.616-0.986-2.734-0.018-4.378c0.926-1.573-0.183-2.254-1.897-2.861
					c-5.753-2.037-5.209-4.353-2.754-9.602c2.521-5.39,5.31-9.31,10.715-11.695C547.07,313.412,547.392,311.633,544.721,310.923z"/>
			</g>
			<path class="reg1" d="M399.627,768.988c-0.141-1.138-0.144-2.313-0.445-3.407c-1.628-5.906,2.762-9.393,5.561-13.389
				c1.001-1.43,3.028-0.526,4.625,0.294c2.329,1.196,0.821,2.528,0.361,3.861c-2.371,0.904-3.65,2.514-3.769,5.156
				c-0.139,3.068-2.209,5.222-3.98,7.484C401.195,768.988,400.411,768.988,399.627,768.988z"/>
			<g>
				<path class="reg2" d="M655.101,473.757c-1.544-0.97-3.2-1.801-4.605-2.942c-1.934-1.572-4.568-3.074-5.28-5.16
					c-0.937-2.745-1.976-5.285-3.545-7.699c-1.983-3.05-2.45-9.356-0.056-11.024c4.12-2.87,5.432-7.744,9.122-10.885
					c4.444-3.783,3.44-8.473-1.985-10.529c-3.417-1.295-6.774-2.68-10.08-4.232c-1.462-0.687-2.973-1.389-4.828-0.538
					c-3.772,1.73-6.082,0.896-7.184-2.887c-1.781-6.111-6.021-8.443-11.928-8.656c-1.291-0.047-2.545,0.103-3.71-0.813
					c-4.098-3.221-9.125-4.954-13.176-8.328c-2.383-1.985-5.124-2.545-8.34-0.865c-3.664,1.914-7.263,0.148-8.072-3.345
					c-1.358-5.862-6.9-8.433-12.423-5.296c-7.353,4.176-14.581,8.602-21.629,13.274c-5.251,3.481-5.971,3.431-7.378-2.542
					c-2.123,0.099-3.867-0.029-5.344-2.219c-1.595-2.367-3.979-1.78-4.851,0.969c-0.597,1.881-1.192,3.33-3.48,3.583
					c-2.031,0.225-2.726,1.769-2.72,3.681c0.008,2.837-0.822,5.607-0.196,8.525c0.625,2.916-0.839,4.446-3.907,5.078
					c-5.728,1.179-8.322,9.873-4.478,14.373c3.202,3.749,2.998,6.395-0.623,9.745c-2.268,2.098-4.864,3.865-1.179,7.397
					c2.48,2.376-0.46,11.07-3.057,13.349c-4.772,4.188-9.443,3.495-15.046,1.951c-4.81-1.326-10.216-1.989-14.833,1.945
					c-2.338,1.992-5.328,2.287-8.516,1.809c-4.728-0.709-9.117,1.33-13.592,2.476c-0.534,0.137-1.222,0.808-1.322,1.33
					c-1.075,5.594-6.258,8.071-9.156,12.258c-2.073,2.995-3.784,6.261-2.466,10.029c0.845,2.417-0.221,4.617-0.227,6.922
					c-0.003,1.297-1.278,1.734-2.562,1.929c-5.28,0.8-7.688,3.19-8.55,8.226c-0.151,0.881-0.426,1.788-0.856,2.567
					c-1.798,3.259-3.276,6.686-4.837,10.004c-1.984,4.215-4.374,8.507-7.105,12.525c-3.189,4.693-8.082,6.331-12.125,9.432
					c4.917,2.035,10.101,1.047,15.155,1.142c1.994,0.037,3.833,0.106,5.647,0.865c2.192,0.917,4.34,1.554,6.791,0.714
					c1.684-0.578,3.204,0.391,4.782,1.131c5.266,2.47,10.451,4.978,16.688,4.268c6.248-0.711,10.637,3.298,11.451,9.565
					c0.599,4.611,0.752,9.278,3.817,13.275c1.499,1.955,1.752,4.572,1.612,7.118c-0.2,3.643,2.076,4.698,5.186,4.754
					c1.299,0.024,2.627-0.231,3.891-0.037c1.115,0.172,3.114,0.84,3.095,1.208c-0.317,6.307,7.508,6.901,8.436,12.219
					c0.725-0.396,1.52-1.068,1.364-1.773c-0.771-3.488,1.826-4.434,4.048-5.724c0.562-0.326,1.071-0.746,1.592-1.14
					c9.454-7.164,19.886-12.711,30.313-18.257c2.046-1.088,4.211-1.187,6.424-0.22c1.153,0.504,2.428,0.731,3.65,1.076
					c1.264-4.347,7.856-8.994,12.535-8.678c1.998,0.135,3.893,0.227,3.787-2.433c-0.045-1.14-2.259-2.546,0.047-3.29
					c1.682-0.543,3.07-3.577,5.571-0.783c1.177,1.315,3.206,0.494,4.628-0.643c0.704-0.563,1.28-1.299,2.018-1.805
					c0.787-0.54,1.758-0.715,2.521,0.006c0.275,0.26,0.347,0.98,0.206,1.383c-0.287,0.822-0.94,1.21-1.846,0.82
					c-0.672-0.289-1.402-0.32-1.556,0.487c-0.19,0.99,0.674,1.262,1.456,1.434c2.484,0.545,4.577-0.603,6.71-1.573
					c0.341-1.069-0.217-2.318,0.659-3.279c1.064-2.76,2.598-3.905,5.164-1.502c0.258,0.258,0.516,0.516,0.774,0.773
					c1.862,1.027,1.041,2.644,0.906,4.109c2.73,0.563,5.444-0.119,8.166-0.103c2.201,0.013,4.389-0.163,6.561,0.571
					c4.131,1.396,6.021-0.189,5.029-4.468c-0.612-2.636,0.33-4.226,2.252-5.646c3.185-2.353,6.652-3.852,10.631-4.503
					c2.814-0.461,6.814-1.162,6.139-5.007c-0.734-4.182-0.296-7.511,1.398-11.444c1.799-4.177,2.997-8.219,7.465-10.406
					c1.428-0.699,2.415-2.299,3.604-3.486c-0.17-0.1-0.367-0.159-0.577-0.2c1.505-1.317,2.766-2.903,3.699-4.683
					c0.538-0.201,0.942-1.074,1.248-2.046c1.534-4.883,3.474-9.315,8.093-12.306c2.431-1.574,2.659-4.753,2.429-7.469
					C652.069,486.507,653.221,480.099,655.101,473.757z"/>
				<path class="reg2" d="M542.973,579.371c-0.018-0.005-0.036-0.009-0.054-0.014c-0.003,0.009-0.008,0.019-0.01,0.029
					L542.973,579.371z"/>
			</g>
			<path class="reg1" d="M487.092,593.176c0.018-0.368-1.98-1.036-3.095-1.208c-1.265-0.195-2.593,0.06-3.891,0.037
				c-3.11-0.056-5.386-1.111-5.186-4.754c0.14-2.546-0.113-5.163-1.612-7.118c-3.065-3.997-3.218-8.665-3.817-13.275
				c-0.814-6.268-5.203-10.277-11.451-9.565c-6.237,0.71-11.422-1.798-16.688-4.268c-1.577-0.74-3.098-1.709-4.782-1.131
				c-2.451,0.841-4.599,0.203-6.791-0.714c-1.813-0.758-3.653-0.827-5.647-0.865c-5.055-0.095-10.239,0.893-15.155-1.142
				c-2.754,2.881-5.426,5.859-9.648,6.65c-0.548,0.103-1.315,0.711-1.428,1.21c-1.506,6.65-8.514,10.508-8.967,17.638
				c-0.207,3.26-2.071,4.454-5.027,4.564c1.544,1.949,0.968,4.229,0.983,6.41c0.007,1.016-0.84,2.549,0.052,2.956
				c3.171,1.448,1.316,3.687,1.055,5.553c-0.228,1.63-3.986,2.778-0.605,4.899c-0.245,0.256-0.46,0.552-0.741,0.76
				c-0.892,0.66-2.603,0.991-2.004,2.427c0.625,1.499,2.324-0.68,3.478,0.502c-0.584,1.176-1.82,1.423-2.744,2.069
				c-0.956,0.668-2.074,1.371-1.642,2.794c0.414,1.365,1.664,1.512,2.866,1.56c0.648,0.026,1.308,0.007,1.949-0.086
				c2.923-0.425,4.217,0.977,5.587,3.573c3.725,7.06,1.836,14.544,2.312,21.83c0.114,1.747-0.382,3.883-1.926,5.051
				c-5.999,4.541-13.185,6.944-19.428,11.4c-6.886,4.916-12.135,10.77-17.214,17.17c-3.975,5.008-8.644,9.525-12.16,14.821
				c-3.453,5.202-9.666,7.999-11.772,14.215c-0.071,0.208-0.382,0.339-0.589,0.497c-0.916,0.699-2.369,1.396-1.697,2.685
				c0.723,1.387,2.481,1.527,3.856,1.133c1.201-0.344,2.454-1.076,3.299-1.992c2.856-3.098,5.096-0.84,7.266,0.805
				c0.458,0.348,0.76,1.011,1.455,1.439c4.713,2.903,8.869,6.255,10.399,12.043c0.762,2.881,2.535,3.111,4.766,1.014
				c2.269-2.133,4.214-2.184,6.077,0.595c1.082,1.613,2.203,3.541,3.804,4.404c5.915,3.187,11.219,7.224,16.772,10.923
				c4.059,2.704,7.875,5.098,9.184,9.95c1.02,3.78,4.498,4.87,7.019,6.967c1.116,0.929,2.752,0.171,3.248-1.162
				c1.04-2.793,4.199-3.995,4.617-7.49c3.345,6.652,1.266,12.378-0.972,18.091c-0.928,1.252-1.876,2.491-2.774,3.764
				c-0.429,0.608-1.087,1.322-0.185,1.997c0.653,0.489,1.291-0.008,1.666-0.51c1.84-2.467,4.247-4.467,5.039-7.741
				c2.086-8.616,5.302-16.611,13.515-21.419c1.571-0.92,3.076-1.963,4.549-3.035c3.894-2.835,7.865-5.548,10.523-9.773
				c4.399-6.992,9.816-13.093,12.418-21.5c1.735-5.604,5.48-11.273,9.466-16.244c3.524-4.395,6.979-8.963,11.96-11.638
				c2.581-1.386,3.755-3.1,4.865-5.565c1.805-4.006,2.224-8.59,5.075-12.143c-0.329-0.209-0.659-0.418-0.988-0.627
				c-2.051,0.517-4.036,0.643-4.19-2.177c-0.081-1.478,1.096-2.34,2.568-2.183c2.083,0.222,2.827,1.491,2.223,3.515
				c0.276,0.322,0.552,0.643,0.827,0.965c0.47-2.335,3.254-5.266-1.713-6.176c-0.927-0.17-0.543-1.282-0.503-2.04
				c0.36-6.965-0.309-13.859-1.492-20.712c-0.088-0.511-0.301-1.299,0.255-1.255c4.115,0.325,2.422-2.871,2.129-4.216
				c-0.394-1.804,0.084-2.436,1.365-3.419c1.04-0.798,2.477-1.883,2.044-3.496c-0.462-1.721-2.075-1.651-3.548-1.589
				c-0.88,0.037-1.573-0.274-1.334-1.343c0.171-0.763,0.725-1.074,1.451-0.7c1.901,0.979,2.946,0.234,3.413-1.655
				c0.507-2.053,1.433-1.427,2.319-0.341c1.612,1.976,2.876,1.003,4.131-0.39C494.6,600.077,486.775,599.483,487.092,593.176z
				 M446.53,707.583c0.367,1.317-0.413,2.555-1.618,3.679c-3.217,3.001-5.943,6.238-7.285,10.787
				c-1.028,3.485-5.366,4.602-8.032,7.021c-1.257,1.141-2.661,4.012-5.517,2.226c-0.438-0.274-0.829,0.397-0.776,0.993
				c0.097,1.096,0.13,2.413-1.435,1.988c-1.424-0.386-2.232-2.247-1.366-3.083c3.253-3.138,3.475-8.219,7.93-10.757
				c4.614-2.629,5.706-8.176,7.889-12.71c1.906-3.959,1.316-7.875-0.34-11.777c-0.48-1.132,0.26-2.103,1.2-2.622
				c1.551-0.857,2.634-0.041,3.643,1.206c0.802,0.992,0.614,2.47,0.058,2.676c-3.483,1.284-1.446,3.161-0.661,4.843
				c0.776,1.662,1.736,2.273,3.598,0.942c1.268-0.907,2.879-1.933,5.357-0.803C447.186,703.744,445.842,705.111,446.53,707.583z"/>
			<path class="reg0" d="M430.886,135.444c0.535-2.554,1.23-4.561,3.443-5.708c1.962-1.017,2.502-3.073,2.706-4.948
				c0.317-2.908,2.522-4.079,4.398-5.559c0.816-0.644,1.978-0.722,2.903,0.063c0.633,0.538,0.852,1.283,0.729,2.115
				C443.941,128.977,439.192,133.792,430.886,135.444z"/>
			<path class="reg0" d="M474.992,104.006c-0.302,0.404-0.609,0.968-1.053,1.385c-2.983,2.798-6.403,3.821-10.391,2.486
				c-0.937-0.313-1.654-0.892-1.818-1.828c-0.159-0.911,0.627-1.275,1.353-1.638c2.865-1.431,5.923-2.041,9.085-2.238
				C473.437,102.093,474.456,102.475,474.992,104.006z"/>
			<path class="reg0" d="M456.05,110.053c-1.22,1.62-2.719,3.081-5.038,3.381c-1.735,0.224-2.714-1.095-2.394-2.299
				c0.732-2.749,3.892-1.667,5.718-2.935C455.058,107.699,455.914,108.74,456.05,110.053z"/>
			<path class="reg0" d="M476.597,111.147c-1.008-0.79-3.349-0.471-3.191-1.969c0.167-1.579,2.342-1.695,3.821-1.821
				c1.179-0.101,2.585,0.453,2.402,1.825C479.449,110.53,478.019,110.973,476.597,111.147z"/>
			<path class="reg0" d="M450.156,119.392c0.809-0.081,1.336,0.415,1.249,1.089c-0.328,2.566-2.472,3.762-4.272,5.117
				c-0.561,0.422-1.075-0.38-1.18-1.076C445.775,123.341,448.944,119.479,450.156,119.392z"/>
			<path class="reg2" d="M542.909,579.385c0.897,0.455,1.089-0.377,1.374-0.837c0.724-1.168,1.515-2.366,2.984-1.221
				c0.998,0.777,0.479,2.021-0.15,2.788c-1.131,1.377-2.371,1.31-3.308-0.319c-0.212-0.369-0.4-0.577-0.832-0.428
				C542.973,579.371,542.909,579.385,542.909,579.385z"/>
			<path class="reg0" d="M462.32,101.034c-0.066,1.471-0.76,2.346-2.122,2.323c-1.034-0.018-1.847-0.973-1.427-1.819
				c0.587-1.184,0.047-3.388,1.852-3.433C462.167,98.065,461.465,100.23,462.32,101.034z"/>
			<path class="reg0" d="M462.44,68.205c-0.086,1.028,0.043,2.181-1.297,2.041c-1.193-0.124-2.281-0.81-2.14-2.191
				c0.097-0.955,0.284-2.547,1.408-2.446C461.546,65.712,462.703,66.731,462.44,68.205z"/>
			<path class="reg0" d="M443.368,116.395c-1.023,0.23-1.658-0.24-1.392-0.902c0.573-1.431,1.578-2.637,3.172-3.044
				c0.66-0.169,1.492,0.249,1.239,0.957C445.854,114.897,444.647,115.874,443.368,116.395z"/>
			<path class="reg0" d="M374.935,153.251c-1.854-0.366-3.67,0.627-4.329-1.524c-0.341-1.114,0.342-1.795,1.31-1.923
				C374.129,149.51,374.084,151.424,374.935,153.251z"/>
			<path class="reg0" d="M464.985,100.177c-1.158,0.047-1.455-0.527-1.302-1.215c0.287-1.291,0.919-2.488,2.314-2.764
				c0.671-0.133,1.032,0.65,1.068,1.349C467.152,99.199,465.856,99.632,464.985,100.177z"/>
			<path class="reg0" d="M457.553,104.717c0.824,0.573,2.289,0.484,2.399,1.973c0.068,0.92-0.504,1.41-1.404,1.344
				c-1.35-0.099-1.908-1.19-2.241-2.239C456.096,105.134,456.754,104.72,457.553,104.717z"/>
			<path class="reg3" d="M692.097,278.145c-2.08-0.036-2.721-1.182-2.224-3.044c0.235-0.88,1.041-1.241,1.819-0.827
				c2.07,1.099,0.789,2.579,0.321,3.949C692.012,278.222,692.097,278.145,692.097,278.145z"/>
			<path class="reg3" d="M584.715,214.683c-0.017-0.259-0.01-0.523-0.055-0.777c-0.249-1.428-0.683-3.039,1.356-3.412
				c1.281-0.234,1.8,0.751,1.818,1.96c0.035,2.358-1.527,2.335-3.2,2.15C584.634,214.604,584.715,214.683,584.715,214.683z"/>
			<g>
				<path class="reg4" d="M758.202,264.75c0.586-2.542,0.661-5.2,0.475-7.852c0.125-0.015,0.241-0.033,0.371-0.047
					c-0.173-0.387-0.33-0.778-0.473-1.172c-0.219-2.238-0.594-4.458-0.969-6.583c-0.337-1.911-0.755-3.85-1.251-5.781
					c-0.336-1.848-0.825-3.658-1.639-5.392c-0.796-2.209-1.734-4.352-2.845-6.363c-0.317-0.575-0.709-1.023-1.142-1.38
					c0.492-0.402,1.128-0.585,1.786-0.733c-2.597-9.941-4.982-11.455-15.286-11.645c-5.323-0.098-10.685,0.073-15.867-2.935
					c-2.915-1.692-5.837-2.902-7.85-5.743c-0.922-1.301-2.444-1.876-3.958-2.383c-1.218-0.408-2.5-0.775-3.315-1.924
					c-3.562-5.023-8.369-8.904-12.4-13.497c-0.611,0.167-1.223,0.334-1.834,0.502c-0.178,0.391-0.383,0.669-0.6,0.884
					c-0.196-1.809-1.029-3.522-3.015-5.548c-0.239-0.244-0.524-0.451-0.825-0.639c0.012-0.114,0.024-0.228,0.036-0.342
					c-5.685-6.207-13.478-9.317-20.365-13.75c-1.832-1.179-3.414-2.72-5.634-3.431c-7.267-2.327-14.362,1.024-21.643,0.571
					c-3.039-0.189-6.131,0.304-8.96-1.102c-2.395-1.19-4.28-4.722-7.402-1.123c-0.121,0.14-0.908-0.356-1.405-0.476
					c-6.861-1.659-12.842-5.203-18.889-8.654c-2.531-1.444-5.508-3.444-6.945,1.402c-0.072,0.243-0.622,0.58-0.832,0.511
					c-3.657-1.187-6.555,0.571-9.524,2.05c-2.414,0.282-4.76,1.867-6.218,3.716c-0.75-0.133-1.495-0.255-2.151-0.164
					c-1.567,3.296-3.937,5.912-7.091,8.085c1.4-3.659,0.911-7.687,2.416-11.144c0.922-2.119,0.487-5.877,4.591-5.686
					c0.22,0.01,0.721-1.086,0.688-1.643c-0.059-1.01-0.23-2.286-1.423-2.522c-1.412-0.279-2.496,0.483-3.045,1.858
					c-0.303,0.759-0.151,2.067-1.594,1.46c-0.54-0.227-1.194-0.718-1.342-1.222c-0.252-0.856,0.603-1.333,1.17-1.844
					c0.189-0.171,0.454-0.254,0.665-0.405c4.034-2.89,3.855-3.781,0.886-7.49c-1.706-2.131-5.776-3.009-4.348-6.675
					c-4.007-0.101-7.624,0.535-8.666,5.492c-1.495-1.855-1.142-3.165-1.033-4.416c0.092-1.058,1.901-2.116,0.536-3.056
					c-1.414-0.975-2.07,1.054-3.419,1.702c-0.038-1.959-0.133-3.949-2.791-2.094c-0.542,0.379-0.949-0.128-1.429-0.723
					c-1.947-2.411-4.752-2.978-7.701-3.027c-1.81,8.929-2.595,18.087-7.82,26.089c-4.027,6.167-5.119,13.956-10.32,19.561
					c-0.082,0.089-0.133,0.237-0.14,0.362c-0.436,7.131-6.394,10.831-10.299,15.572c-4.358,5.291-11.329,7.634-16.915,11.641
					c-2.338,1.677-4.632,3.117-5.324,6.405c6.288-2.564,12.03-3.594,16.974,1.968c0.388,0.436,1.137,0.644,1.756,0.766
					c2.893,0.569,4.017,2.64,4.494,5.23c0.532,2.891,0.294,5.957,0.76,8.713c0.934,5.527-2.512,10.29-1.71,15.6
					c-6.083,3.431-2.048,6.896-0.039,10.357c0.13,0.224,0.163,0.519,0.325,0.709c2.431,2.861,4.757,5.826,7.366,8.515
					c1.388,1.43,3.251,1.23,5.083,0.284c2.221-1.146,4.461-1.83,5.764,1.388c1.541,3.807,0.776,6.284-2.588,7.581
					c-2.179,0.84-4.943,1.222-4.892,4.225c0.047,2.761-2.015,4.412-2.682,6.72c-0.135,0.467,0.316,1.472,0.753,1.673
					c2.567,1.182,2.064,4.093,3.261,5.666c2.185,2.872,2.667,5.789,3.594,9.061c1.615,5.7,6.909,8.944,12.619,10.461
					c2.671,0.71,2.349,2.489,1.114,3.034c-5.405,2.385-8.194,6.305-10.715,11.695c-2.455,5.249-2.999,7.566,2.754,9.602
					c1.714,0.607,2.823,1.288,1.897,2.861c-0.968,1.643-1.493,2.762,0.018,4.377c0.647,0.691-0.124,1.676-1.085,2.118
					c-3.853,1.774-3.17,4.84-1.686,7.572c1.343,2.472,1.856,4.808,1.145,7.468c1.789,4.258,1.428,8.696-0.257,12.663
					c-2.018,4.749-1.602,11.899,1.917,15.958c2.881,3.324,2.968,9.594,0.18,13.018c1.407,5.973,2.127,6.023,7.378,2.542
					c7.048-4.672,14.277-9.097,21.629-13.274c5.523-3.137,11.065-0.566,12.423,5.296c0.809,3.492,4.408,5.258,8.072,3.345
					c3.216-1.68,5.957-1.12,8.34,0.865c4.051,3.374,9.078,5.107,13.176,8.328c1.165,0.916,2.42,0.766,3.711,0.813
					c5.907,0.213,10.147,2.545,11.928,8.656c1.102,3.783,3.413,4.616,7.184,2.887c1.855-0.851,3.366-0.148,4.828,0.538
					c3.306,1.553,6.662,2.938,10.08,4.232c5.424,2.055,6.429,6.745,1.985,10.529c-3.69,3.141-5.003,8.015-9.122,10.885
					c-2.394,1.668-1.927,7.974,0.056,11.024c1.569,2.414,2.609,4.955,3.545,7.699c0.712,2.086,3.346,3.588,5.28,5.16
					c1.404,1.141,3.061,1.972,4.605,2.942c1.369-2.451,3.389-4.24,5.709-5.766c3.071-2.02,4.996-4.457,3.477-8.502
					c-0.466-1.241-0.319-2.895,0.034-4.231c2.126-8.04,4.011-16.166,7.242-23.861c1.058-2.52,1.049-4.941,0.847-7.597
					c-0.664-8.745-3.073-17.536,0.241-26.258c0.172-0.453,0.169-1.069,0.015-1.531c-0.518-1.551-3.322-3.566,1.048-3.941
					c0.652-0.056,0.491-1.66-0.101-1.972c-2.803-1.476-2.574-3.111-0.595-5.095c0.63-0.631,0.567-1.576,0.004-2.143
					c-2.047-2.065-0.848-3.615,0.856-4.803c2.497-1.74,2.67-4.802,4.283-7.067c0.096-0.134,0.149-0.255,0.185-0.371
					c1.859-0.668,3.696-0.979,5.348-0.726c1.731,0.265,3.287-0.247,4.393-1.187c0.09,0.29,0.174,0.591,0.243,0.917
					c8.142-8.657,15.567-17.745,17.471-30.87c0.79,1.73-0.142,2.967,1.144,3.294c0.83,0.211,1.472-0.499,1.829-1.186
					c0.774-1.489,1.437-3.036,2.145-4.56c-0.513-0.244-1.007-0.501-1.259-0.942c3.099-2.241,6.146-4.562,9.13-6.971
					c4.456-2.56,9.061-4.873,12.434-9.368c0.996-1.328,2.089-2.57,3.098-3.867c-0.985-5.262-1.344-13.08,4.505-12.187
					c1.921,0.293,3,1.965,3.575,4.086c3.054-2.79,5.423-5.953,7.349-9.356c3.721-4.618,7.369-10.027,7.65-15.94
					c0.153-3.221-0.764-5.496-2.573-7.904c0.77-0.063,1.618,0.282,2.428,0.426c0.549-2.621,1.098-5.243,1.647-7.865
					C759.117,265.403,758.753,264.981,758.202,264.75z"/>
			</g>
			<path class="reg5" d="M539.824,388.272c-3.519-4.06-3.935-11.209-1.917-15.958c1.685-3.967,2.046-8.405,0.258-12.661
				c-6.997,0.216-12.178,5.698-19.077,6.532c-2.142,0.259-4.042,1.457-6.165,0.04c-0.875-0.584-2.124-1.271-2.58,0.198
				c-1.494,4.809-3.928,2.373-6.03,0.796c-3.243-2.434-9.321-2.651-12.449,0.154c-1.979,1.775-2.551,0.623-2.718-0.982
				c-0.221-2.116-0.522-4.141-1.693-5.947c-1.95-3.009-3.931-3.143-6.055-0.322c-1.095,1.455-2.05,3.025-2.957,4.608
				c-1.128,1.969-2.722,2.562-4.549,1.288c-2.105-1.468-4.522-1.997-6.849-2.793c-5.311-1.817-6.206-3.341-4.902-8.666
				c0.265-1.084,1.074-2.634-0.27-3.119c-1.581-0.57-2.616,0.868-3.109,2.286c-0.336,0.966-0.34,2.048-0.489,3.079
				c-0.1,0.688-0.383,1.348-1.091,1.45c-0.79,0.114-1.539-0.197-2.045-0.898c-0.663-0.92-0.58-1.991-0.54-3.021
				c0.266-6.854-1.219-13.586-1.154-20.481c0.056-6.026,0.794-11.852,2.231-17.552c1.13-4.481,3.246-8.745,5.209-12.973
				c1.201-2.586,0.402-3.107-2.084-3.255c-30.468-1.81-60.933-3.677-91.398-5.552c-7.16-0.441-14.323-0.867-21.47-1.477
				c-10.648-0.909-17.896-7.889-25.212-14.589c-1.289-1.181-1.78-3.115-1.74-5.063c0.17-8.145-4.355-14.585-7.92-21.358
				c-0.376-0.714-1.439-1.98-1.968-0.676c-1.362,3.355-3.564,7.142-3.005,10.33c0.963,5.49-1.359,9.952-2.337,14.839
				c-0.243,1.214-1.111,1.651-2.28,1.729c-2.842,0.191-5.677,0.517-8.521,0.625c-15.126,0.577-30.252,1.129-45.381,1.619
				c-2.014,0.065-2.722,0.799-2.66,2.818c0.174,5.612,0.105,11.231,0.292,16.843c0.117,3.507-0.596,7.132,0.579,10.497
				c1.077,3.085,1.4,6.135,0.681,9.226c-0.755,3.244,0.991,4.709,3.618,4.594c6.292-0.276,12.507,0.877,18.754,0.716
				c5.676-0.146,9.96,3.012,6.219,9.293c-1.621,2.723-1.684,5.816,0.763,8.338c1.683,1.734,2.065,3.873,2.278,6.086
				c0.5,5.203-1.413,9.792-4.668,13.522c-3.89,4.457-5.173,10.939-10.908,13.916c-0.147,0.076-0.122,0.485-0.177,0.739
				c4.503,2.37,5.498,4.172,4.903,9.21c-0.164,1.387,0.271,2.509,0.84,3.721c1.05,2.237,2.116,4.506,2.783,6.872
				c0.632,2.24,1.258,5.117-0.92,6.566c-3.504,2.332-1.962,4.145-0.111,6.237c2.318,2.622,3.628,5.398,3.437,9.177
				c-0.308,6.115,2.627,8.755,8.766,8.715c7.184-0.046,14.367-0.179,21.551-0.252c4.288-0.043,5.392,1.68,3.639,5.613
				c-2.206,4.952-0.146,12.712,4.18,15.745c3.542,2.484,9.747,9.75,11.363,13.302c0.162,0.357,0.388,0.693,0.496,1.064
				c0.369,1.264,0.601,2.557,0.235,3.856c-1.75,6.215-3.752,12.355-5.514,18.57c-1.455,5.133-3.641,9.876,1.645,14.071
				c-6.253,3.101-6.398,3.475-3.996,9.223c1.295,3.1,3.782,6.276,3.606,9.294c-0.328,5.618-0.524,11.302-1.227,16.884
				c-0.777,6.169-0.256,7.512,4.88,7.977c4.391,0.398,8.815,0.871,13.1,1.853c3.484,0.798,5.887-0.446,7.797-2.914
				c1.563-2.018,2.745-1.589,4.013,0.039c1.66,2.132,3.473,3.745,6.49,3.286c1.333-0.203,2.416,0.526,3.417,1.538
				c3.008,3.042,2.449,6.785,3.131,10.54c0.976,5.368,1.179,11.028,3.435,16.274c2.199,5.115,4.034,6.243,9.145,3.848
				c6.125-2.87,6.125-2.87,10.483,1.833c2.957-0.109,4.82-1.304,5.027-4.564c0.454-7.13,7.461-10.988,8.967-17.638
				c0.113-0.499,0.88-1.108,1.428-1.21c4.223-0.792,6.894-3.769,9.648-6.65c4.042-3.102,8.936-4.74,12.125-9.432
				c2.73-4.018,5.121-8.31,7.105-12.525c1.562-3.319,3.04-6.745,4.837-10.004c0.429-0.779,0.705-1.685,0.856-2.567
				c0.862-5.037,3.27-7.426,8.55-8.226c1.284-0.195,2.559-0.632,2.562-1.929c0.006-2.305,1.073-4.505,0.227-6.922
				c-1.318-3.768,0.393-7.034,2.466-10.029c2.898-4.188,8.082-6.665,9.156-12.258c0.1-0.522,0.788-1.193,1.322-1.33
				c4.476-1.146,8.865-3.184,13.592-2.476c3.188,0.478,6.178,0.183,8.516-1.809c4.617-3.934,10.022-3.271,14.833-1.945
				c5.603,1.545,10.275,2.237,15.046-1.951c2.597-2.279,5.536-10.973,3.057-13.349c-3.686-3.531-1.089-5.299,1.179-7.397
				c3.621-3.35,3.825-5.995,0.623-9.745c-3.844-4.5-1.25-13.194,4.478-14.373c3.068-0.631,4.533-2.161,3.907-5.078
				c-0.626-2.918,0.205-5.687,0.196-8.525c-0.005-1.912,0.689-3.456,2.72-3.681c2.288-0.254,2.883-1.702,3.48-3.583
				c0.872-2.749,3.255-3.335,4.851-0.969c1.477,2.19,3.221,2.319,5.344,2.219C542.793,397.867,542.706,391.597,539.824,388.272z"/>
		</g>
	</g>
</g>
</svg>
